<?xml version="1.0" encoding="UTF-8" standalone="no"?>
<!DOCTYPE svg PUBLIC "-//W3C//DTD SVG 1.1//EN" "http://www.w3.org/Graphics/SVG/1.1/DTD/svg11.dtd">
<svg width="100%" height="100%" viewBox="0 0 1848 596" version="1.1" xmlns="http://www.w3.org/2000/svg" xmlns:xlink="http://www.w3.org/1999/xlink" xml:space="preserve" xmlns:serif="http://www.serif.com/" style="fill-rule:evenodd;clip-rule:evenodd;stroke-linejoin:round;stroke-miterlimit:2;">
    <g transform="matrix(4.16667,0,0,4.16667,-80.2477,-706.071)">
        <g>
            <g transform="matrix(1,0,0,1,101.082,219.912)">
                <path d="M0,44.997L-16.289,44.997L-16.289,-9L-26.188,-9L-26.188,53.997L0,53.997L0,44.997Z" style="fill:rgb(225,187,130);fill-rule:nonzero;"/>
            </g>
            <g transform="matrix(1,0,0,1,141.492,225.399)">
                <path d="M0,34.02L0,0.001C0,-4.499 1.98,-6.209 5.13,-6.209C8.28,-6.209 10.26,-4.499 10.26,0.001L10.26,34.02C10.26,38.52 8.28,40.23 5.13,40.23C1.98,40.23 0,38.52 0,34.02M20.159,33.39L20.159,0.631C20.159,-9.449 14.85,-15.209 5.13,-15.209C-4.59,-15.209 -9.899,-9.449 -9.899,0.631L-9.899,33.39C-9.899,43.469 -4.59,49.229 5.13,49.229C14.85,49.229 20.159,43.469 20.159,33.39" style="fill:rgb(225,187,130);fill-rule:nonzero;"/>
            </g>
            <g transform="matrix(1,0,0,1,194.592,274.718)">
                <path d="M0,-63.807L0,-15.839C0,-5.76 5.04,0 14.759,0C24.479,0 29.519,-5.76 29.519,-15.839L29.519,-63.807L20.159,-63.807L20.159,-15.209C20.159,-10.709 18.179,-9.089 15.029,-9.089C11.879,-9.089 9.899,-10.709 9.899,-15.209L9.899,-63.807L0,-63.807Z" style="fill:rgb(225,187,130);fill-rule:nonzero;"/>
            </g>
            <g transform="matrix(1,0,0,1,279.01,210.912)">
                <path d="M0,62.997L10.169,62.997L10.169,0L1.35,0L1.35,37.708L-8.82,0L-21.239,0L-21.239,62.997L-12.33,62.997L-12.33,17.369L0,62.997Z" style="fill:rgb(225,187,130);fill-rule:nonzero;"/>
            </g>
            <g transform="matrix(1,0,0,1,351.999,252.67)">
                <path d="M0,-20.52L0,-26.639C0,-36.719 -5.04,-42.479 -14.759,-42.479C-24.479,-42.479 -29.519,-36.719 -29.519,-26.639L-29.519,6.12C-29.519,16.199 -24.479,21.959 -14.759,21.959C-5.04,21.959 0,16.199 0,6.12L0,-13.86L-13.859,-13.86L-13.859,-4.86L-9.359,-4.86L-9.359,6.75C-9.359,11.25 -11.339,12.869 -14.489,12.869C-17.639,12.869 -19.619,11.25 -19.619,6.75L-19.619,-27.269C-19.619,-31.769 -17.639,-33.479 -14.489,-33.479C-11.339,-33.479 -9.359,-31.769 -9.359,-27.269L-9.359,-20.52L0,-20.52Z" style="fill:rgb(225,187,130);fill-rule:nonzero;"/>
            </g>
            <g transform="matrix(1,0,0,1,412.388,264.909)">
                <path d="M0,-44.999L0,-53.998L-26.999,-53.998L-26.999,8.999L0,8.999L0,-0.001L-17.1,-0.001L-17.1,-18.45L-3.51,-18.45L-3.51,-27.449L-17.1,-27.449L-17.1,-44.999L0,-44.999Z" style="fill:rgb(225,187,130);fill-rule:nonzero;"/>
            </g>
            <g transform="matrix(1,0,0,1,101.154,312.433)">
                <path d="M0,-139.957L0,-132.957L354.477,-132.957L354.477,-7L-69.503,-7L-69.503,-101.521L-76.503,-101.521L-76.503,0L361.477,0L361.477,-139.957L0,-139.957Z" style="fill:rgb(225,187,130);fill-rule:nonzero;"/>
            </g>
            <g transform="matrix(1,0,0,1,24.6784,169.458)">
                <path d="M0,29.405L3.235,29.405L3.235,2.982L8.654,2.982L8.654,0L-5.419,0L-5.419,2.982L0,2.982L0,29.405Z" style="fill:rgb(225,187,130);fill-rule:nonzero;"/>
            </g>
            <g transform="matrix(1,0,0,1,51.4318,182.689)">
                <path d="M0,2.941L7.226,2.941L7.226,16.173L10.502,16.173L10.502,-13.232L7.226,-13.232L7.226,0.001L0,0.001L0,-13.232L-3.276,-13.232L-3.276,16.173L0,16.173L0,2.941Z" style="fill:rgb(225,187,130);fill-rule:nonzero;"/>
            </g>
            <g transform="matrix(1,0,0,1,89.9895,172.439)">
                <path d="M0,23.441L-8.821,23.441L-8.821,12.981L-1.638,12.981L-1.638,10.041L-8.821,10.041L-8.821,0.001L0,0.001L0,-2.982L-12.098,-2.982L-12.098,26.423L0,26.423L0,23.441Z" style="fill:rgb(225,187,130);fill-rule:nonzero;"/>
            </g>
        </g>
    </g>
</svg>
